<svg width="203" height="153" viewBox="0 0 203 153" fill="none" xmlns="http://www.w3.org/2000/svg">
<path d="M147.606 106.047C130.459 131.787 95.6925 138.752 69.953 121.606C44.2134 104.459 37.2476 69.6925 54.3944 43.953C71.5412 18.2134 106.307 11.2476 132.047 28.3944C157.787 45.5412 164.752 80.3075 147.606 106.047Z" fill="url(#paint0_linear_38_152)"/>
<circle cx="101" cy="75" r="47.5" stroke="#626262"/>
<path d="M3.13844 91V61.4H11.0384L19.6784 80.96H18.8984L27.2984 61.4H35.1984V91H29.1384V67.08H30.4184L21.8384 86.72H16.4984L7.63844 67.08H9.19844V91H3.13844ZM38.2575 91L46.0975 67.2H55.5575L63.4175 91H57.0775L50.4775 69.72H51.0975L44.5175 91H38.2575ZM44.2175 85.12L45.5775 80.38H56.0575L57.4175 85.12H44.2175ZM79.6247 91L73.9447 82.94L70.1847 78.6L61.8847 67.2H69.0447L74.0247 74.16L77.7647 78.54L86.7447 91H79.6247ZM61.2047 91L70.1847 78.6L74.0247 74.16L78.9447 67.2H85.9047L77.7647 78.54L73.9447 82.94L68.3047 91H61.2047ZM107.28 91.38C104.826 91.38 102.646 91.0933 100.74 90.52C98.833 89.9333 97.213 89.0333 95.8797 87.82C94.5597 86.5933 93.5597 85.0267 92.8797 83.12C92.1997 81.2133 91.8597 78.9267 91.8597 76.26C91.8597 72.8733 92.473 70.0533 93.6997 67.8C94.9264 65.5333 96.713 63.84 99.0597 62.72C101.406 61.5867 104.253 61.02 107.6 61.02C108.733 61.02 109.826 61.08 110.88 61.2C111.933 61.3067 112.96 61.48 113.96 61.72V67.08C113.026 66.8533 112.073 66.68 111.1 66.56C110.14 66.44 109.146 66.38 108.12 66.38C105.986 66.38 104.22 66.7133 102.82 67.38C101.433 68.0333 100.393 69.08 99.6997 70.52C99.0064 71.96 98.6597 73.8467 98.6597 76.18C98.6597 78.5933 98.9997 80.52 99.6797 81.96C100.373 83.3867 101.4 84.42 102.76 85.06C104.133 85.7 105.846 86.02 107.9 86.02C108.913 86.02 109.92 85.94 110.92 85.78C111.92 85.6067 112.933 85.3733 113.96 85.08V90.42C113.013 90.7133 111.96 90.9467 110.8 91.12C109.653 91.2933 108.48 91.38 107.28 91.38ZM128.063 91.3C125.57 91.3 123.396 90.8533 121.543 89.96C119.69 89.0533 118.25 87.7 117.223 85.9C116.196 84.0867 115.683 81.8267 115.683 79.12C115.683 76.4 116.196 74.1333 117.223 72.32C118.25 70.5067 119.69 69.1533 121.543 68.26C123.396 67.3533 125.57 66.9 128.063 66.9C130.556 66.9 132.73 67.3533 134.583 68.26C136.45 69.1533 137.89 70.5133 138.903 72.34C139.93 74.1533 140.443 76.4133 140.443 79.12C140.443 81.8133 139.93 84.0667 138.903 85.88C137.89 87.6933 136.45 89.0533 134.583 89.96C132.73 90.8533 130.556 91.3 128.063 91.3ZM128.063 86.4C129.29 86.4 130.336 86.1533 131.203 85.66C132.07 85.1667 132.73 84.3933 133.183 83.34C133.636 82.2733 133.863 80.9 133.863 79.22C133.863 77.4467 133.63 76.02 133.163 74.94C132.71 73.8467 132.05 73.0533 131.183 72.56C130.316 72.0533 129.276 71.8 128.063 71.8C126.85 71.8 125.81 72.0467 124.943 72.54C124.09 73.02 123.43 73.7933 122.963 74.86C122.51 75.9133 122.283 77.2867 122.283 78.98C122.283 80.7667 122.51 82.2067 122.963 83.3C123.416 84.38 124.07 85.1667 124.923 85.66C125.79 86.1533 126.836 86.4 128.063 86.4ZM144.638 91V67.2H151.098V91H144.638ZM156.513 91V67.2H162.853L174.093 83.22H173.153V67.2H179.133V91H172.793L161.553 74.98H162.493V91H156.513ZM190.9 91.3C189.607 91.3 188.32 91.2133 187.04 91.04C185.774 90.8667 184.634 90.6333 183.62 90.34V85.4C184.394 85.6133 185.207 85.8 186.06 85.96C186.914 86.1067 187.747 86.22 188.56 86.3C189.387 86.38 190.147 86.42 190.84 86.42C191.96 86.42 192.84 86.3333 193.48 86.16C194.12 85.9733 194.567 85.7133 194.82 85.38C195.087 85.0333 195.22 84.62 195.22 84.14C195.22 83.7533 195.127 83.4133 194.94 83.12C194.767 82.8267 194.427 82.5667 193.92 82.34C193.427 82.1133 192.714 81.8933 191.78 81.68L190.02 81.34C187.567 80.82 185.767 79.9933 184.62 78.86C183.487 77.7133 182.92 76.22 182.92 74.38C182.92 72.9267 183.307 71.64 184.08 70.52C184.854 69.3867 186.067 68.5 187.72 67.86C189.374 67.22 191.514 66.9 194.14 66.9C195.207 66.9 196.26 66.9533 197.3 67.06C198.34 67.1667 199.274 67.3133 200.1 67.5V72.44C199.207 72.2267 198.267 72.06 197.28 71.94C196.294 71.82 195.3 71.76 194.3 71.76C192.954 71.76 191.907 71.86 191.16 72.06C190.427 72.2467 189.914 72.5133 189.62 72.86C189.34 73.1933 189.2 73.5867 189.2 74.04C189.2 74.6267 189.394 75.0933 189.78 75.44C190.18 75.7733 191.02 76.0933 192.3 76.4L194.06 76.74C195.794 77.1 197.207 77.5867 198.3 78.2C199.394 78.8 200.194 79.56 200.7 80.48C201.22 81.4 201.48 82.5 201.48 83.78C201.48 85.2467 201.087 86.5467 200.3 87.68C199.514 88.8133 198.334 89.7 196.76 90.34C195.2 90.98 193.247 91.3 190.9 91.3Z" fill="white"/>
<defs>
<linearGradient id="paint0_linear_38_152" x1="132.047" y1="28.3944" x2="69.953" y2="121.606" gradientUnits="userSpaceOnUse">
<stop stop-color="#A2A2A2"/>
<stop offset="0.225" stop-color="#656565"/>
<stop offset="0.5" stop-color="#363636"/>
<stop offset="0.555" stop-color="#3A3A3A"/>
<stop offset="0.75" stop-color="#656565"/>
<stop offset="1" stop-color="#A1A1A1"/>
</linearGradient>
</defs>
</svg>
