<svg width="214" height="98" viewBox="0 0 214 98" fill="none" xmlns="http://www.w3.org/2000/svg">
<path d="M97.9999 49C97.9999 76.062 76.0619 98 48.9999 98C21.938 98 -5.21794e-05 76.062 -5.21794e-05 49C-5.21794e-05 21.938 21.938 9.8212e-07 48.9999 9.8212e-07C76.0619 9.8212e-07 97.9999 21.938 97.9999 49Z" fill="#515151"/>
<path d="M8.79937 61V31.4H16.6994L25.3394 50.96H24.5594L32.9594 31.4H40.8594V61H34.7994V37.08H36.0794L27.4994 56.72H22.1594L13.2994 37.08H14.8594V61H8.79937ZM43.9184 61L51.7584 37.2H61.2184L69.0784 61H62.7384L56.1384 39.72H56.7584L50.1784 61H43.9184ZM49.8784 55.12L51.2384 50.38H61.7184L63.0784 55.12H49.8784ZM85.2856 61L79.6056 52.94L75.8456 48.6L67.5456 37.2H74.7056L79.6856 44.16L83.4256 48.54L92.4056 61H85.2856ZM66.8656 61L75.8456 48.6L79.6856 44.16L84.6056 37.2H91.5656L83.4256 48.54L79.6056 52.94L73.9656 61H66.8656ZM118.619 61.38C116.165 61.38 113.985 61.0933 112.079 60.52C110.172 59.9333 108.552 59.0333 107.219 57.82C105.899 56.5933 104.899 55.0267 104.219 53.12C103.539 51.2133 103.199 48.9267 103.199 46.26C103.199 42.8733 103.812 40.0533 105.039 37.8C106.265 35.5333 108.052 33.84 110.399 32.72C112.745 31.5867 115.592 31.02 118.939 31.02C120.072 31.02 121.165 31.08 122.219 31.2C123.272 31.3067 124.299 31.48 125.299 31.72V37.08C124.365 36.8533 123.412 36.68 122.439 36.56C121.479 36.44 120.485 36.38 119.459 36.38C117.325 36.38 115.559 36.7133 114.159 37.38C112.772 38.0333 111.732 39.08 111.039 40.52C110.345 41.96 109.999 43.8467 109.999 46.18C109.999 48.5933 110.339 50.52 111.019 51.96C111.712 53.3867 112.739 54.42 114.099 55.06C115.472 55.7 117.185 56.02 119.239 56.02C120.252 56.02 121.259 55.94 122.259 55.78C123.259 55.6067 124.272 55.3733 125.299 55.08V60.42C124.352 60.7133 123.299 60.9467 122.139 61.12C120.992 61.2933 119.819 61.38 118.619 61.38ZM139.402 61.3C136.909 61.3 134.736 60.8533 132.882 59.96C131.029 59.0533 129.589 57.7 128.562 55.9C127.536 54.0867 127.022 51.8267 127.022 49.12C127.022 46.4 127.536 44.1333 128.562 42.32C129.589 40.5067 131.029 39.1533 132.882 38.26C134.736 37.3533 136.909 36.9 139.402 36.9C141.896 36.9 144.069 37.3533 145.922 38.26C147.789 39.1533 149.229 40.5133 150.242 42.34C151.269 44.1533 151.782 46.4133 151.782 49.12C151.782 51.8133 151.269 54.0667 150.242 55.88C149.229 57.6933 147.789 59.0533 145.922 59.96C144.069 60.8533 141.896 61.3 139.402 61.3ZM139.402 56.4C140.629 56.4 141.676 56.1533 142.542 55.66C143.409 55.1667 144.069 54.3933 144.522 53.34C144.976 52.2733 145.202 50.9 145.202 49.22C145.202 47.4467 144.969 46.02 144.502 44.94C144.049 43.8467 143.389 43.0533 142.522 42.56C141.656 42.0533 140.616 41.8 139.402 41.8C138.189 41.8 137.149 42.0467 136.282 42.54C135.429 43.02 134.769 43.7933 134.302 44.86C133.849 45.9133 133.622 47.2867 133.622 48.98C133.622 50.7667 133.849 52.2067 134.302 53.3C134.756 54.38 135.409 55.1667 136.262 55.66C137.129 56.1533 138.176 56.4 139.402 56.4ZM155.977 61V37.2H162.437V61H155.977ZM167.852 61V37.2H174.192L185.432 53.22H184.492V37.2H190.472V61H184.132L172.892 44.98H173.832V61H167.852ZM202.239 61.3C200.946 61.3 199.659 61.2133 198.379 61.04C197.113 60.8667 195.973 60.6333 194.959 60.34V55.4C195.733 55.6133 196.546 55.8 197.399 55.96C198.253 56.1067 199.086 56.22 199.899 56.3C200.726 56.38 201.486 56.42 202.179 56.42C203.299 56.42 204.179 56.3333 204.819 56.16C205.459 55.9733 205.906 55.7133 206.159 55.38C206.426 55.0333 206.559 54.62 206.559 54.14C206.559 53.7533 206.466 53.4133 206.279 53.12C206.106 52.8267 205.766 52.5667 205.259 52.34C204.766 52.1133 204.053 51.8933 203.119 51.68L201.359 51.34C198.906 50.82 197.106 49.9933 195.959 48.86C194.826 47.7133 194.259 46.22 194.259 44.38C194.259 42.9267 194.646 41.64 195.419 40.52C196.193 39.3867 197.406 38.5 199.059 37.86C200.713 37.22 202.853 36.9 205.479 36.9C206.546 36.9 207.599 36.9533 208.639 37.06C209.679 37.1667 210.613 37.3133 211.439 37.5V42.44C210.546 42.2267 209.606 42.06 208.619 41.94C207.633 41.82 206.639 41.76 205.639 41.76C204.293 41.76 203.246 41.86 202.499 42.06C201.766 42.2467 201.253 42.5133 200.959 42.86C200.679 43.1933 200.539 43.5867 200.539 44.04C200.539 44.6267 200.733 45.0933 201.119 45.44C201.519 45.7733 202.359 46.0933 203.639 46.4L205.399 46.74C207.133 47.1 208.546 47.5867 209.639 48.2C210.733 48.8 211.533 49.56 212.039 50.48C212.559 51.4 212.819 52.5 212.819 53.78C212.819 55.2467 212.426 56.5467 211.639 57.68C210.853 58.8133 209.673 59.7 208.099 60.34C206.539 60.98 204.586 61.3 202.239 61.3Z" fill="white"/>
</svg>
