<svg width="349" height="314" viewBox="0 0 349 314" fill="none" xmlns="http://www.w3.org/2000/svg">
<circle cx="174" cy="157" r="157" fill="#C6C6C6"/>
<circle cx="174" cy="157" r="123" fill="white"/>
<path d="M89.0403 183V135.64H101.68L115.504 166.936H114.256L127.696 135.64H140.336V183H130.64V144.728H132.688L118.96 176.152H110.416L96.2403 144.728H98.7363V183H89.0403ZM161.167 183L176.463 135.64H191.599L206.895 183H196.655L183.407 140.184H184.495L171.279 183H161.167ZM171.791 170.36L174.031 162.072H193.999L196.207 170.36H171.791ZM253.721 183L242.169 165.944L236.153 158.456L220.409 135.64H231.929L242.297 150.808L248.345 158.36L265.209 183H253.721ZM219.257 183L236.153 158.456L242.297 150.808L252.665 135.64H263.897L248.345 158.36L242.169 165.944L230.617 183H219.257Z" fill="black"/>
</svg>
