<svg width="50" height="50" viewBox="0 0 50 50" fill="none" xmlns="http://www.w3.org/2000/svg">
<path d="M32.8125 18.9063L20.625 29.6875C20.4687 29.8438 20.4687 30 20.4687 30.1563L20 34.375C20 34.5313 19.8437 34.5313 19.6875 34.375L17.8125 28.125C17.6562 27.8125 17.8125 27.5 18.125 27.3438L32.3437 18.4375C32.8125 18.2813 33.125 18.75 32.8125 18.9063Z" fill="#222A30"/>
<path d="M25 3.4375C19.0625 3.4375 13.5938 5.78125 9.6875 9.6875C5.78125 13.5938 3.28125 19.0625 3.28125 25C3.28125 30.9375 5.625 36.4062 9.6875 40.3125C13.5938 44.2187 19.0625 46.5625 25 46.5625C30.9375 46.5625 36.4062 44.2187 40.3125 40.3125C44.2188 36.4062 46.7188 30.9375 46.7188 25C46.5625 13.125 36.875 3.4375 25 3.4375ZM37.8125 15.7813L33.4375 37.0312C33.2812 37.9688 32.0312 38.4375 31.25 37.8125L24.5312 32.8125L21.0938 36.25C20.4688 36.875 19.5313 36.5625 19.2188 35.7812L16.7188 27.9688L10.1562 25.9375C9.21875 25.625 9.21875 24.5312 10.1562 24.2188L36.25 14.0625C37.0312 13.9062 38.125 14.6875 37.8125 15.7813Z" fill="#222A30"/>
</svg>
