<svg width="50" height="50" viewBox="0 0 50 50" fill="none" xmlns="http://www.w3.org/2000/svg">
<path d="M31.4688 46.875H18.5312C6.29219 46.875 3.125 43.7078 3.125 31.4688V18.5312C3.125 6.29219 6.29219 3.125 18.5312 3.125H31.4672C43.7078 3.125 46.875 6.29219 46.875 18.5312V31.4688C46.875 43.7078 43.7078 46.875 31.4688 46.875ZM18.5312 4.6875C7.14531 4.6875 4.6875 7.14531 4.6875 18.5312V31.4688C4.6875 42.8547 7.14531 45.3125 18.5312 45.3125H31.4672C42.8531 45.3125 45.3109 42.8547 45.3109 31.4688V18.5312C45.3125 7.14531 42.8547 4.6875 31.4688 4.6875H18.5312Z" fill="#263238"/>
<path d="M39.4047 35.7437H35.9859C34.7203 35.7437 34.0859 35.0359 33.0312 33.8641C32.6156 33.4031 32.1062 32.8359 31.4297 32.1578C29.5641 30.3594 28.7734 30.1781 28.4828 30.1781C28.4719 30.2547 28.4625 30.3766 28.4625 30.5672V33.6328C28.4625 35.3844 27.175 35.7437 25.2391 35.7437C21.1828 35.7437 17.0453 33.2797 14.1703 29.1531C10.0297 23.3484 8.63437 18.6297 8.63437 17.3688C8.63437 16.2578 9.34687 15.6203 10.5875 15.6203H14.0062C15.5062 15.6203 15.9641 16.5781 16.275 17.475C17.8141 21.9609 20.0828 25.3031 21.0266 25.9703C21.0344 25.8688 21.0406 25.7344 21.0406 25.5531V20.5188C20.9766 19.3797 20.5984 18.9109 20.2641 18.4984C19.9906 18.1609 19.6812 17.7781 19.6812 17.1875C19.6812 16.4344 20.3125 15.6203 21.3328 15.6203H26.7047C27.5078 15.6203 28.4625 15.9734 28.4625 17.6578V24.4313C28.4625 24.4625 28.4641 24.4906 28.4656 24.5172C28.6422 24.3953 28.8937 24.1656 29.2547 23.8063C31.5656 21.2203 33.2687 17.1125 33.2859 17.0703C33.6937 16.1172 34.4562 15.6188 35.4969 15.6188H38.9156C39.6547 15.6188 40.1937 15.8406 40.5172 16.275C40.7328 16.5641 40.9391 17.0781 40.6984 17.8813C40.2578 19.9109 36.4219 25.3547 35.9844 25.9688C35.9516 26.0234 35.8187 26.2391 35.8016 26.3125C35.8062 26.3125 35.8344 26.3891 35.9641 26.5578C36.1219 26.775 36.5109 27.1563 36.8875 27.5266C37.3531 27.9828 37.8797 28.5 38.2984 28.9953C40.1422 31.0687 41.0219 32.3109 41.3297 33.2672C41.5859 34.1516 41.3594 34.7078 41.1219 35.0219C40.8797 35.3531 40.3828 35.7437 39.4047 35.7437ZM28.5766 28.6141C29.2828 28.6141 30.3047 28.9031 32.5234 31.0422C33.2359 31.7547 33.7641 32.3406 34.1937 32.8188C35.2156 33.9578 35.4641 34.1812 35.9844 34.1812H39.4031C39.7266 34.1812 39.8578 34.1078 39.875 34.0875C39.875 34.0875 39.9141 33.9922 39.8375 33.7281C39.55 32.8344 38.2344 31.2766 37.1203 30.0219C36.7187 29.5469 36.2297 29.0688 35.7953 28.6453C35.3125 28.1734 34.9328 27.8 34.7156 27.4969C33.9375 26.4953 34.2422 25.8219 34.6875 25.1063C35.8453 23.4719 38.8578 18.9984 39.1875 17.4938C39.2328 17.3344 39.2437 17.2469 39.2437 17.2047C39.2156 17.2078 39.1109 17.1844 38.9156 17.1844H35.4969C35.0297 17.1844 34.8609 17.3656 34.7281 17.6766C34.6594 17.8438 32.9125 22.0609 30.3906 24.8813C29.5875 25.6859 29.0203 26.1922 28.2141 26.1922C27.5812 26.1922 26.9 25.6406 26.9 24.4328V17.6594C26.9 17.3594 26.8641 17.2328 26.8469 17.1891C26.8297 17.1953 26.7875 17.1859 26.7047 17.1844H21.3328C21.2562 17.2438 21.3906 17.4094 21.4797 17.5188C21.8906 18.0266 22.5094 18.7938 22.6031 20.4781L22.6047 25.5563C22.6047 26.1797 22.6047 27.6422 21.1891 27.6422C19.1844 27.6422 16.1906 22.0344 14.8 17.9875C14.5219 17.1859 14.3922 17.1859 14.0078 17.1859H10.5891C10.2828 17.1859 10.1922 17.2453 10.1922 17.2453C10.1984 17.9188 11.1672 22.2516 15.4484 28.2547C18.0359 31.9688 21.6937 34.1828 25.2406 34.1828C26.9016 34.1828 26.9016 33.9531 26.9016 33.6344V30.5687C26.9016 29.6016 27.1 28.6141 28.5766 28.6141Z" fill="#263238"/>
</svg>
